<?xml version="1.0" encoding="utf-8"?>
<!-- Generator: Adobe Illustrator 24.3.0, SVG Export Plug-In . SVG Version: 6.00 Build 0)  -->
<svg version="1.1" id="Layer_1" xmlns="http://www.w3.org/2000/svg" xmlns:xlink="http://www.w3.org/1999/xlink" x="0px" y="0px"
	 viewBox="0 0 291.1 137" style="enable-background:new 0 0 291.1 137;" xml:space="preserve">
<style type="text/css">
	.st0{fill:#E7322E;}
	.st1{fill:#F37027;}
	.st2{enable-background:new    ;}
	.st3{fill:#FFFFFF;}
</style>
<g id="Logo" transform="translate(-31.795 -19)">
	<g id="Layer_2_1_" transform="translate(31.795 19)">
		<g id="Layer_1_1_" transform="translate(0 0)">
			<path id="Path_1" class="st0" d="M34.6,45.6c0.9-0.2,1.2-0.5,1.2-1.4c0-0.4,0-4.6,0.1-6.3c0-0.8,0.1-1.6,0.5-2.3
				c0.4-0.3,1-0.4,1.5-0.3h5.8c1.7-0.1,2.5-0.9,2.6-1.5c0.4-1.7,0.8-3.4,1.3-5c0.7-2.2,1.7-4.3,3-6.2c-1.4-0.4-2.8-0.6-4.2-0.5
				c-1.3-0.1-2.6-0.1-3.9,0.1c-2.3,0.6-4.5,1.2-6.7,2l-0.4,0.2c-0.1,0.3-0.2,0.6-0.3,0.9c-0.3,1.4-0.5,2.9-0.7,4.3
				c-0.1,0.6-0.1,1.2-0.1,1.8c0.1,0.9-0.6,1.6-1.4,1.7c-2.2,0.5-4.4,1-6.6,1.5c-0.7,0.2-1.5,0.4-2.2,0.6c-0.3,0.1-0.5,0.2-0.8,0.3
				c-1.9,0.6-3.7,1.4-5.3,2.6c-1.8,1.2-3.5,2.5-5.3,3.8c-0.9,0.7-1.8,1.4-2.5,2.3c-1.1,1.1-2.2,2.4-3.3,3.6
				c-1.5,1.8-2.7,3.8-3.7,5.9c-0.9,1.6-1.7,3.4-2.2,5.1c-0.5,1.8-0.8,3.6-0.9,5.5c0,0.6-0.1,1.2-0.2,1.8c0,0.6,0,1.2,0,1.8
				c0,0.5,0.1,1,0.2,1.4c0.3,2.1,0.6,4.2,1.1,6.3c0.9,4.4,2.6,8.5,5.1,12.3c1.2,1.8,2.6,3.6,4.1,5.1c0-0.9,0-1.8,0.1-2.8
				c0.3-2,0.6-3.9,1.1-5.9c0.6-2.4,1.4-4.7,2.4-6.9c-0.2-0.6-0.5-1.3-0.7-1.9c-0.7-2.6-1-5.4-0.9-8.1c0.1-2.3,0.7-4.6,1.7-6.7l0,0
				c1-2.1,2.1-4.2,3.3-6.2c0.8-1.1,1.7-2,2.7-2.9c0.7-0.8,1.6-1.4,2.4-2c1.9-1.2,4-2.2,6.3-2.7C30.7,46.3,32.7,46,34.6,45.6"/>
			<path id="Path_2" class="st0" d="M87,126.8c-3.7-0.5-7.3-1.6-10.7-3.3h-0.1c-1.2,0.4-2.4,0.7-3.7,1c-1.5,0.2-3,0.3-4.5,0.3
				c-1.9,0-3.8-0.3-5.6-0.9c-0.6-0.1-1.1-0.3-1.7-0.5c-2.4-0.9-4.6-2.4-6.4-4.1c-1.5-1.4-2.8-2.9-4-4.7c-1.4-2.1-2.5-4.5-3.3-6.9
				c-0.4-1.1-0.5-2.3-0.8-3.5c-0.1-0.5-0.2-0.9-0.5-1.3c-0.3-0.3-0.7-0.6-1.1-0.7c-1.6-0.3-3.2-0.4-4.9-0.3c-1,0-1.9-0.1-2.9-0.2
				c-0.7-0.2-1.2-0.8-1.2-1.5c0-1.6,0-3.3,0-4.9c0-0.8,0-1.6-0.2-2.3c-0.2-0.9-1.1-1.2-1.9-1.4c-2.8-0.5-5.6-1.3-8.3-2.4
				c-0.7-0.3-1.4-0.6-2.1-1c-0.4,2-0.6,4-0.5,6.1c0,2.5,0.6,5.1,1.6,7.4c1.4,0.4,2.8,0.8,4.2,1.1c1.1,0.2,2.1,0.3,3.2,0.6
				c0.5,0.2,1.1,0.4,1.5,0.7c0.6,0.3,1,0.9,1,1.6c0.3,2.6,1,5.1,2.1,7.5l0.2,0.5c0.8,2.3,1.9,4.6,3.2,6.7c1.1,1.7,2.2,3.3,3.4,4.9
				c0.6,0.7,1.3,1.3,2,2l0.3,0.3c1.2,1.3,2.6,2.4,4.1,3.4c0.6,0.4,1.1,0.9,1.7,1.3c2.6,1.6,5.4,2.8,8.4,3.6c2,0.6,4,0.9,6.1,1.1
				c0.9,0.1,3.5,0.2,5,0.2c0.6-0.1,1.3-0.1,1.9-0.2c1.7-0.3,3.3-0.6,5-0.9c2.1-0.5,4-1.2,6-2c3-1.1,5.7-2.7,8.1-4.8
				c0.8-0.7,1.6-1.3,2.3-2c-0.6,0.1-1.2,0.1-1.7,0.1C90.3,127.2,88.6,127.1,87,126.8"/>
			<path id="Path_3" class="st0" d="M137.5,66.6c-0.3-3.7-1.2-7.3-2.6-10.7c-1.4-3.8-3.4-7.3-6-10.4c-0.6-0.8-1.3-1.5-2-2.2
				c0.1,1.5,0.1,3.1,0.1,4.6c-0.1,1.7-0.3,3.4-0.7,5.1c-0.2,1-0.5,1.9-0.9,2.8c-0.4,1.2-0.8,2.3-1.3,3.5l-0.4,0.8
				c1.4,3.2,2,6.6,1.8,10.1c-0.2,2.2-0.7,4.3-1.5,6.3v0.1c-0.7,2-1.7,3.9-2.8,5.6c-1.7,2.3-3.8,4.2-6.3,5.6l-0.1,0.1
				c-2.1,1.3-4.3,2.2-6.7,2.8c-1.2,0.3-2.5,0.5-3.7,0.8c-1.1,0.1-1.9,1-1.8,2.1c-0.3,2.1,0,4.2-0.1,6.3c0.1,0.9-0.5,1.8-1.3,2.2
				c-0.7,0.3-1.4,0.4-2.2,0.4c-0.7,0-4.4-0.2-5.6-0.2c-0.5,0-1,0.3-1.2,0.7c-0.3,0.7-0.5,1.4-0.7,2.1c-0.3,1.2-0.6,2.3-0.8,3.5
				c-0.4,2.2-1.3,4.3-2.5,6.2c2.6,0.6,5.3,0.8,8,0.4c2-0.4,3.9-1,5.8-1.9c0.1-0.4,0.2-0.7,0.3-1.1c0.5-2.2,0.9-4.3,1.2-6.5
				c0.1-0.5,0.4-0.9,0.8-1.3c0.6-0.4,1.3-0.7,2.1-0.7c1.3-0.1,2.5-0.3,3.8-0.6c1.1-0.3,2.1-0.6,3.2-0.9c3.4-1.1,6.7-2.9,9.5-5.1
				c1.4-1,2.7-2.1,3.8-3.2c0.4-0.4,0.7-0.8,1.1-1.3c1.1-1.3,2.1-2.7,3.1-4c0.8-0.9,1.5-1.9,2.2-3c0.9-1.6,1.6-3.2,2.4-4.8
				c1.1-2.2,1.7-4.6,1.9-7.1C137.6,71.3,137.7,68.9,137.5,66.6"/>
			<path id="Path_4" class="st0" d="M54.6,10.9c1.9,0.3,3.8,1,5.5,1.9c0.5,0.3,1.1,0.5,1.6,0.8c1.2-0.5,2.5-0.8,3.7-0.9
				c1.1-0.2,2.2-0.3,3.4-0.3c1.7,0,3.5,0.2,5.2,0.6c0.8,0.2,1.6,0.3,2.3,0.5c1.5,0.4,2.9,1,4.3,1.7c2.6,1.5,4.9,3.5,6.5,6
				c0.4,0.6,0.7,1.2,1.1,1.8c1.5,2.9,2.6,5.9,3.3,9C92,34,92.7,34.8,95,35c1.9,0,3.8,0.2,5.7,0.5c1.1,0.2,1.9,1.1,1.8,2.2
				c0.1,1.4-0.1,2.7-0.1,4.1c0,0.8,0,1.6,0.2,2.4c0.2,0.7,0.8,1.3,1.5,1.4c1.6,0.6,3.2,1.1,4.8,1.6c2,0.5,3.9,1.3,5.8,2.2l0,0
				c0.1-0.5,0.3-1,0.3-1.5c0.6-3,0.5-6-0.4-8.9c-0.4-1.4-1-2.8-1.7-4.1l-0.8-0.2c-2.2-0.7-4.6-1-7-0.9c-0.5,0.1-1-0.3-1.2-0.8
				c-0.3-0.9-0.5-1.8-0.7-2.7c-0.5-2-1.1-4.1-1.6-6.1c-0.1-0.5-0.3-1-0.4-1.4c-0.4-1.2-0.9-2.3-1.5-3.4c-0.4-0.9-0.8-1.8-1.4-2.6
				c-1-1.4-2-2.8-3.2-4.1c-0.8-0.9-1.7-1.7-2.5-2.5C92.2,9.6,91.6,9,91,8.5c-2.6-2.2-5.6-4-8.8-5.3C80.2,2.4,78,1.6,75.9,1
				c-1.6-0.4-3.2-0.7-4.8-0.9C68.7-0.1,66.3,0,64,0.3c-1.5,0.2-3,0.5-4.4,0.7c-2.7,0.6-5.2,1.7-7.4,3.4c-1.8,1.1-3.4,2.4-5.1,3.7
				c-0.6,0.5-1.2,1.1-1.8,1.7c1,0,1.9,0.1,2.9,0.2C50.2,10.2,52.5,10.5,54.6,10.9"/>
			<path id="Path_5" class="st1" d="M55.9,24.8c1.7,1,3.3,2.2,4.9,3.3c0.5,0.5,1.2,0.5,1.7,0c0.1-0.1,0.1-0.1,0.2-0.2
				c0.3-0.3,3.3-3.2,4.5-4.3c0.5-0.6,1.2-0.9,2-1.1c0.5,0,1,0.2,1.4,0.6l2.1,2.1c0.6,0.7,1.3,1.3,2,2c0.6,0.4,1.2,0.7,1.9,1
				c0.4,0,0.7,0,1.1-0.2c1.5-0.9,3-1.8,4.5-2.6c2-1.1,4.1-1.8,6.3-2.2c-0.3-0.6-0.7-1.2-1.1-1.8c-1.7-2.5-3.9-4.6-6.5-6
				c-1.4-0.7-2.8-1.3-4.3-1.7l-0.7,0.4c-1.2,0.8-2.4,1.6-3.5,2.6c-0.5,0.4-0.9,0.8-1.4,1.2c-0.6,0.6-1.5,0.7-2.2,0.2
				c-1.9-1.2-3.7-2.5-5.6-3.7c-0.4-0.2-0.8-0.4-1.2-0.6c-0.5-0.2-1.1-0.5-1.6-0.8c-1.7-0.9-3.6-1.6-5.5-1.9
				c-2.1-0.4-4.3-0.7-6.4-1.1c-1-0.1-1.9-0.2-2.9-0.2c-1.8,0-3.6,0.2-5.4,0.3c-2.3,0.2-4.6,0.7-6.8,1.6c-1.8,0.5-3.5,1.2-5.2,2.1
				c-1.6,0.9-3.2,2-4.6,3.3C23,17.3,22.5,17.6,22,18l-1.3,1.2c-0.3,0.4-0.6,0.8-0.9,1.1c-1.2,1.7-2.6,3.4-3.7,5.3
				c-2.4,3.7-4.2,7.8-5.2,12.2c-0.4,2-0.7,4.1-0.7,6.2c0.8-0.8,1.6-1.6,2.5-2.3c1.8-1.3,3.5-2.6,5.3-3.8c1.6-1.1,3.4-2,5.3-2.5
				c0.3-0.1,0.5-0.2,0.8-0.3c0.2-0.3,0.4-0.7,0.5-1.1c1.4-2.4,3.1-4.5,5.1-6.3c1.6-1.5,3.5-2.7,5.5-3.5l0.4-0.2
				c2.2-0.8,4.4-1.5,6.7-2c1.3-0.2,2.6-0.2,3.9-0.1c1.4,0,2.8,0.2,4.2,0.5C52.4,23,54.2,23.8,55.9,24.8"/>
			<path id="Path_6" class="st1" d="M126.8,93.6c-1.2,1.2-2.5,2.3-3.8,3.2c-2.8,2.2-6.1,4-9.5,5.1c-0.6,1.5-1.5,3-2.5,4.3
				c-0.9,1.2-1.9,2.3-3,3.3c-1.7,1.4-3.6,2.6-5.6,3.4l-0.3,0.1c-1.8,0.9-3.8,1.5-5.8,1.9c-2.7,0.4-5.4,0.2-8-0.4l-0.3-0.1
				c-2.4-0.5-4.7-1.5-6.8-2.8c-1.1-0.7-2.1-1.4-3.2-2.1c-0.8-0.7-2.1-0.6-2.8,0.2c-1.7,1.3-3,3-4.5,4.4c-0.6,0.7-1.6,0.9-2.5,0.6
				c-1.1-0.3-2.8-2.4-3.3-2.9c-0.8-0.8-1.6-1.6-2.3-2.4c-0.3-0.4-0.9-0.5-1.3-0.3c-0.7,0.3-1.3,0.6-2,1.1c-1.1,0.6-2,1.2-3,1.9
				c-1.8,1.2-3.7,2-5.8,2.5c1.1,1.7,2.5,3.3,4,4.7c1.8,1.8,4,3.2,6.4,4.1c0.3-0.2,0.7-0.4,1.1-0.5c2-1,3.8-2.3,5.5-3.7
				c0.5-0.4,1.1-0.6,1.7-0.7c1.2-0.1,3.6,2.8,4.7,3.5c0.8,0.5,1.7,1,2.5,1.4c3.3,1.7,7,2.8,10.7,3.3c1.7,0.3,3.3,0.4,5,0.4
				c0.6,0,1.2-0.1,1.7-0.1c1.7-0.2,3.3-0.4,5-0.7c1.2-0.1,2.4-0.3,3.5-0.6c1.7-0.5,3.4-1.1,5.1-1.7c2.3-0.9,4.4-2.1,6.3-3.6
				c0.8-0.7,1.6-1.3,2.4-2c0.1,0,0.2-0.1,0.3-0.1l1.5-1.5c0.3-0.4,0.6-0.8,0.9-1.2c4.9-6,8-13.3,8.9-21c0.1-0.7,0.1-1.5,0.1-2.2
				C127.5,92.8,127.1,93.2,126.8,93.6"/>
			<path id="Path_7" class="st1" d="M95.5,12.7c1.2,1.3,2.2,2.6,3.2,4.1c0.5,0.8,1,1.7,1.4,2.6c0.6,1.1,1.1,2.2,1.5,3.4
				c0.1,0.5,0.3,1,0.4,1.4c1.4,0.6,2.8,1.4,4,2.3c0.9,0.7,1.8,1.4,2.6,2.2c1.2,1.2,2.3,2.6,3.2,4.1c0.5,0.7,0.9,1.4,1.4,2.2
				c0.7,1.3,1.3,2.6,1.7,4.1c0.8,2.9,1,6,0.4,8.9c-0.1,0.5-0.2,1-0.3,1.5c-1,3.3-2.4,6.4-4.2,9.3c-1,1.7-1.1,2.8,0.4,4.5
				c1.4,1.4,2.6,2.8,3.7,4.4c0.7,0.9,0.5,2.1-0.3,2.8c-0.9,1.1-2,1.9-3,2.8c-0.6,0.6-1.1,1.2-1.6,1.9c-0.3,0.7-0.3,1.5,0.1,2.1
				c0.7,1.5,1.5,3,2.3,4.5c1.1,1.8,1.9,3.7,2.5,5.7v0.2l0.1-0.1c2.4-1.4,4.5-3.3,6.2-5.5c1.2-1.7,2.1-3.6,2.8-5.6
				c-0.2-0.4-0.4-0.7-0.6-1.1c-1.3-1.9-2.7-3.7-4.2-5.4c-0.4-0.4-0.5-1-0.3-1.5c0.5-0.8,0.9-1.6,1.4-2.4c1.2-2,2.4-4,3.5-6l0.4-0.8
				c0.5-1.1,1-2.3,1.3-3.5c0.4-0.9,0.7-1.9,0.9-2.8c0.4-1.7,0.6-3.4,0.7-5.1c0-1.5,0-3.1-0.1-4.6c0-0.5-0.1-0.9-0.1-1.4
				c-0.3-3.4-1.1-6.8-2.4-9.9c-0.8-2.1-1.8-4.2-2.9-6.2c-0.8-1.3-1.7-2.6-2.7-3.7c-1.6-1.9-3.4-3.6-5.3-5.2
				c-1.2-0.9-2.4-1.7-3.7-2.6c-2.3-1.5-4.9-2.5-7.6-2.9c-1.9-0.3-4-0.7-6-0.9c-1.1-0.1-2.1-0.1-3.2-0.1C93.8,11,94.7,11.8,95.5,12.7
				"/>
			<path id="Path_8" class="st1" d="M42.9,125.1c-1.2-1.6-2.4-3.2-3.4-4.9c-1.3-2.1-2.3-4.4-3.2-6.7l-0.2-0.5
				c-0.3-0.1-0.7-0.3-1.1-0.4c-1.1-0.6-2.2-1.2-3.3-1.9c-1.2-0.9-2.3-1.9-3.4-2.9c-1.3-1.4-2.4-2.9-3.3-4.5c-0.3-0.5-0.6-1-0.9-1.6
				c-1-2.3-1.5-4.8-1.6-7.4c-0.1-2,0.1-4.1,0.5-6.1c0.5-2.5,1.4-5,2.6-7.2c0.5-1.1,1.3-2,1.9-3.1c0.3-0.4,0.5-0.8,0.5-1.3
				c0-0.5-0.1-0.9-0.3-1.3c-0.9-1.3-2-2.6-3.2-3.7c-0.7-0.7-1.3-1.5-1.9-2.2c-0.4-0.6-0.3-1.4,0.2-2c1.1-1.2,2.3-2.3,3.5-3.5
				c0.6-0.6,1.1-1.2,1.6-1.8c0.4-0.8,0.2-1.7-0.4-2.3c-1.6-2.4-3-4.9-4.2-7.6c-0.4-0.9-0.7-1.8-1-2.7c-0.9,0.6-1.7,1.3-2.4,2
				c-1,0.9-1.9,1.8-2.7,2.8c-1.2,2-2.3,4.1-3.3,6.2l0,0c0.6,1.2,1.3,2.3,2,3.4c0.6,0.9,1.3,1.7,1.8,2.6c0.3,0.5,0.5,1,0.6,1.6
				c0.2,0.6,0,1.3-0.4,1.8c-1.9,2.1-2.9,4.7-4.1,7.3v0.1c-1,2.2-1.9,4.5-2.4,6.9c-0.4,1.9-0.8,3.9-1.1,5.9c-0.1,0.9,0,1.8-0.1,2.8
				c0,2.6,0.3,5.3,0.8,7.9c0.8,2.9,1.9,5.8,3.4,8.4c2.2,3.8,5.1,7.1,8.4,9.9c1.3,1.1,2.8,1.9,4.1,2.9c1.8,1.1,3.7,2,5.7,2.8
				c2.9,1.3,6,2.1,9.1,2.4c1.1,0.1,2.1,0.2,3.2,0.2L45,127c-0.6-0.7-1.4-1.3-2-2"/>
			<path id="Path_9" class="st0" d="M83.5,56.7V53c0-0.4-0.4-0.8-0.8-0.8H57.9c-0.4,0-0.8,0.3-0.8,0.8c0,0,0,0,0,0v4.9l0,0v2.2
				c0,0.4,0.4,0.8,0.8,0.8l0,0h4c0.4,0,0.8-0.4,0.8-0.8l0,0v-1.5c0-0.4,0.3-0.7,0.7-0.7l0,0h12.4L57.4,79.3
				c-0.2,0.3-0.3,0.7-0.3,1.1V84c0,0.4,0.3,0.8,0.8,0.8c0,0,0,0,0,0h24.9c0.4,0,0.8-0.3,0.8-0.8v-7.2c0-0.4-0.4-0.8-0.8-0.8l0,0h-4
				c-0.4,0-0.8,0.4-0.8,0.8l0,0v1.5c0,0.4-0.3,0.7-0.7,0.7H64.6l18.6-21.3C83.4,57.5,83.5,57.1,83.5,56.7"/>
			<path id="Path_10" class="st0" d="M48.9,81.8h4.1c0.4,0,0.8-0.4,0.8-0.8l0,0v-25c0-0.4-0.3-0.8-0.8-0.8c0,0,0,0,0,0h-4.1
				c-0.4,0-0.8,0.4-0.8,0.8l0,0v9.2c-1.4-1.1-3.2-1.7-4.9-1.6c-2.5,0-4.9,1-6.7,2.8c-1.8,1.7-2.8,4.1-2.8,6.6c0,1.7,0.4,3.3,1.3,4.7
				c0.8,1.4,2,2.6,3.4,3.4c1.5,0.8,3.1,1.3,4.8,1.3c1.8,0,3.5-0.5,4.9-1.6V81C48.1,81.4,48.5,81.8,48.9,81.8 M46.4,75.9
				c-1.6,1.7-4.3,1.7-6,0c-1.7-1.6-1.7-4.3,0-6s4.3-1.7,6,0c0,0,0,0,0,0C48,71.5,48.1,74.2,46.4,75.9C46.4,75.8,46.4,75.8,46.4,75.9
				"/>
			<path id="Path_11" class="st0" d="M87.5,76.1c-0.4,0-0.8,0.3-0.8,0.8c0,0,0,0,0,0V81c0,0.4,0.4,0.8,0.8,0.8l0,0h15.7
				c0.4,0,0.8-0.3,0.8-0.8c0,0,0,0,0,0v-4.2c0-0.4-0.3-0.8-0.8-0.8c0,0,0,0,0,0h-5V64.4c0-0.4-0.4-0.8-0.8-0.8l0,0h-9.9
				c-0.4,0-0.8,0.4-0.8,0.8l0,0v4.1c0,0.4,0.4,0.8,0.8,0.8l0,0h5V76L87.5,76.1z"/>
			<path id="Path_12" class="st0" d="M98.1,58.2c0-1.8-1.5-3.3-3.3-3.3c-1.8,0-3.3,1.5-3.3,3.3c0,1.8,1.5,3.3,3.3,3.3l0,0
				C96.6,61.5,98.1,60,98.1,58.2"/>
		</g>
	</g>
	<g class="st2">
		<path class="st3" d="M194,107v-3.3l4.2-0.7V73.3l-4.2-0.7v-3.3h4.2h13.1c2.7,0,5,0.5,6.9,1.4c1.9,0.9,3.3,2.3,4.3,3.9
			c1,1.7,1.5,3.7,1.5,5.9c0,2.3-0.5,4.3-1.5,6c-1,1.7-2.5,3-4.3,3.9c-1.9,0.9-4.2,1.4-6.9,1.4h-8V103l4.2,0.7v3.3H194z M203.4,87.9
			h8c2.6,0,4.5-0.7,5.7-2.1c1.3-1.4,1.9-3.1,1.9-5.2c0-2.1-0.6-3.8-1.9-5.2s-3.2-2.1-5.7-2.1h-8V87.9z"/>
	</g>
	<g class="st2">
		<path class="st0" d="M242.3,108.4c-2.1,0-3.7-0.6-4.9-1.8c-1.2-1.2-1.8-3.2-1.8-5.8v-17h-4.4V80h4.4v-6.8h5.1V80h6.1v3.8h-6.1v17
			c0,1.3,0.3,2.3,0.8,3c0.5,0.6,1.2,1,2.1,1c0.6,0,1.3-0.1,2-0.2c0.7-0.1,1.3-0.2,1.7-0.3l0.7,3.3c-0.7,0.2-1.7,0.4-2.7,0.6
			C244.2,108.3,243.2,108.4,242.3,108.4z"/>
	</g>
	<g class="st2">
		<path class="st3" d="M256.9,107v-3.3l4.2-0.7V73.3l-4.2-0.7v-3.3h4.2h13.1c2.7,0,5,0.5,6.9,1.4c1.9,0.9,3.3,2.3,4.3,3.9
			c1,1.7,1.5,3.7,1.5,5.9c0,2.3-0.5,4.3-1.5,6c-1,1.7-2.5,3-4.3,3.9c-1.9,0.9-4.2,1.4-6.9,1.4h-8V103l4.2,0.7v3.3H256.9z
			 M266.2,87.9h8c2.6,0,4.5-0.7,5.7-2.1c1.3-1.4,1.9-3.1,1.9-5.2c0-2.1-0.6-3.8-1.9-5.2s-3.2-2.1-5.7-2.1h-8V87.9z"/>
		<path class="st3" d="M304,107.5c-2.3,0-4.5-0.3-6.6-1s-4.1-1.7-6.1-3.1v-8h4l0.9,5.9c1.1,0.7,2.3,1.2,3.6,1.6
			c1.3,0.4,2.7,0.6,4.2,0.6c1.7,0,3.2-0.3,4.4-0.8c1.2-0.5,2.1-1.3,2.8-2.2c0.6-0.9,1-2,1-3.3c0-1.2-0.3-2.2-0.8-3.1
			c-0.6-0.9-1.5-1.7-2.7-2.3c-1.3-0.7-3-1.2-5.2-1.7c-2.6-0.6-4.8-1.4-6.6-2.4c-1.8-1-3.1-2.2-4.1-3.7c-0.9-1.4-1.4-3.1-1.4-5
			c0-2,0.5-3.7,1.6-5.3c1-1.6,2.5-2.8,4.4-3.7c1.9-0.9,4-1.3,6.5-1.3c2.6,0,5,0.4,7,1.2c2,0.8,3.7,1.8,5,2.9v7.5h-4L311,75
			c-0.8-0.6-1.7-1.1-2.9-1.6s-2.6-0.6-4.3-0.6c-1.4,0-2.7,0.3-3.8,0.8c-1.1,0.5-2,1.2-2.6,2.1c-0.6,0.9-0.9,2-0.9,3.2
			c0,1.1,0.3,2,0.8,2.8c0.6,0.8,1.5,1.5,2.7,2.1c1.3,0.6,3,1.2,5.1,1.7c4,1,7,2.4,9,4.4c2,1.9,3.1,4.3,3.1,7.1c0,2-0.5,3.8-1.6,5.4
			c-1.1,1.6-2.6,2.8-4.6,3.7S306.7,107.5,304,107.5z"/>
	</g>
</g>
</svg>
